<?xml version="1.0" encoding="UTF-8"?>
<svg version="1.1" viewBox="0 0 1600 992" width="1280" height="1280" xmlns="http://www.w3.org/2000/svg">
<path transform="translate(497 -.185)" d="m0 0c3.21-0.00218 6.41-0.0204 9.62-0.0393 13-0.0341 25.6 0.641 38.5 2.22 0.33-0.66 0.66-1.32 1-2 0.33 0.33 0.66 0.66 1 1 1.5 0.0461 3 0.038 4.5 0s3-0.0461 4.5 0c0.33 0.33 0.66 0.66 1 1 2.36 0.349 4.7 0.643 7.07 0.902 1.47 0.17 2.94 0.34 4.41 0.51 2.32 0.263 4.63 0.524 6.95 0.783 2.24 0.252 4.47 0.51 6.71 0.77 0.683 0.074 1.37 0.148 2.07 0.224 4.44 0.518 8.53 1.53 12.8 2.81 1.4 0.29 2.81 0.556 4.23 0.781 0.722 0.12 1.44 0.24 2.19 0.363 1.48 0.238 2.96 0.475 4.45 0.711 3.99 0.664 7.39 1.59 11.1 3.14 2.24 0.517 4.49 0.994 6.75 1.44 5.6 1.16 10.9 2.61 16.2 4.56 5.33 1.85 10.7 3.49 16.1 5 4.85 1.37 9.31 2.9 13.9 5 1.84 0.691 3.69 1.38 5.53 2.07 11.3 4.28 22.4 8.96 33.5 13.9 1.11 0.501 1.11 0.501 2.25 1.01 11.7 5.28 22.7 11.3 33.7 17.8 2.6 1.52 5.24 2.95 7.9 4.37 4.17 2.25 8.26 4.62 12.3 7.06l3.36 2.02c0.811 0.572 1.62 1.14 2.46 1.73v2c1.98 0.66 3.96 1.32 6 2v2l2.16 0.754c3.16 1.38 5.59 3.11 8.34 5.18 2.74 2.06 5.37 3.99 8.34 5.69 1.07 0.679 1.07 0.679 2.16 1.37v2c0.681 0.206 1.36 0.412 2.06 0.625 3.92 1.84 6.73 4.51 9.94 7.38 1.66 1.34 3.33 2.67 5 4 2 1.67 4 3.33 6 5 0.949 0.722 1.9 1.44 2.88 2.19 0.701 0.598 1.4 1.2 2.12 1.81v2c0.579 0.25 1.16 0.5 1.75 0.758 2.54 1.41 4.18 3.02 6.18 5.12 2.88 2.96 5.81 5.58 9.06 8.12 1.68 1.66 3.34 3.33 5 5 0.883 0.86 1.77 1.72 2.68 2.61l2.64 2.58c0.883 0.86 1.77 1.72 2.68 2.61 2.01 2.21 2.01 2.21 2.01 4.21h2c3 4.38 3 4.38 3 7-14.7 1.03-14.7 1.03-19.5-2.5-3.08-2.83-5.77-6.01-8.45-9.21-2.56-2.85-5.3-5.44-8.11-8.04-0.495-0.46-0.989-0.92-1.5-1.39-3.28-2.99-6.73-5.43-10.4-7.86-1.69-1.65-3.35-3.31-5-5-1.1-0.906-2.2-1.8-3.31-2.69-0.887-0.763-1.77-1.53-2.69-2.31v-2c-0.699-0.237-1.4-0.474-2.12-0.719-3.42-1.52-6.05-3.5-9.01-5.78-2.92-2.25-5.81-4.45-8.88-6.5v-2c-0.723-0.26-1.45-0.521-2.19-0.789-2.9-1.25-5.19-2.74-7.75-4.59-5.72-4.11-11.5-7.96-17.6-11.6-3.27-1.99-6.5-4-9.68-6.13-2.16-1.43-4.18-2.64-6.51-3.74-4.35-2.11-8.57-4.43-12.8-6.76-2.15-1.17-4.32-2.29-6.52-3.37v-2c-0.699-0.193-1.4-0.387-2.12-0.586-0.91-0.26-1.82-0.521-2.76-0.789-0.905-0.255-1.81-0.51-2.74-0.773-2.38-0.852-2.38-0.852-4.38-2.85-1.94-0.758-3.89-1.51-5.86-2.22-4.34-1.58-8.49-3.44-12.6-5.59-5.96-3.02-12.3-5.15-18.6-7.45-2.87-1.06-5.71-2.18-8.55-3.3-14.8-5.71-30-10.4-45.5-13.7-2.94-0.711-2.94-0.711-5.84-1.71-3.53-1.14-7.01-1.8-10.7-2.44-5.01-0.894-9.94-1.89-14.9-3.12-5.96-1.43-11.9-2.17-18-2.79-5.37-0.554-5.37-0.554-7.56-1.65-1.57-0.21-3.14-0.369-4.71-0.5-0.982-0.082-1.96-0.164-2.98-0.249-1.07-0.083-2.14-0.166-3.25-0.251-1.11-0.0869-2.23-0.174-3.38-0.263-12.6-0.934-25.1-1.45-37.7-1.74-0.993-0.0234-1.99-0.0467-3.01-0.0708-14-0.28-28 0.271-42 1.01-1.24 0.0652-1.24 0.0652-2.51 0.132-10.8 0.575-21.3 1.22-31.9 3.43-5.29 1.03-10.6 1.66-16 2.36-5.03 0.686-9.71 1.69-14.6 3.14-2.6 0.507-5.2 0.987-7.81 1.44-5.25 0.948-10.3 2.06-15.4 3.7-2.92 0.912-5.86 1.71-8.82 2.5-11.1 3-22.1 6.6-33 10.4-0.708 0.243-1.42 0.486-2.14 0.736-9.32 3.21-18.2 6.88-27 11.3-2.91 1.44-5.9 2.67-8.89 3.93-11.8 5-23.3 10.8-34.3 17.4-2.41 1.43-4.84 2.8-7.29 4.15-11.7 6.45-23 13.5-33.7 21.5-2.55 1.87-5.14 3.68-7.75 5.47-5.17 3.61-10.1 7.52-14.9 11.5-1.28 1.03-2.56 2.06-3.84 3.08-6.84 5.51-13.6 11-20.1 17-6.56 5.9-6.56 5.9-9.11 5.9-0.268 0.639-0.536 1.28-0.812 1.94-1.19 2.06-1.19 2.06-4.19 3.06-0.33 0.66-0.66 1.32-1 2-0.33 0.66-0.66 1.32-1 2-0.99 0.33-1.98 0.66-3 1-0.33 0.66-0.66 1.32-1 2-0.33 0.66-0.66 1.32-1 2-0.99 0.33-1.98 0.66-3 1-0.691 1.32-1.35 2.66-2 4-1.18 1.29-2.42 2.54-3.69 3.75-6.22 6.08-11.7 12.6-16.8 19.6-0.489 0.557-0.977 1.11-1.48 1.69h-2c-0.232 0.706-0.464 1.41-0.703 2.14-1.55 3.42-3.58 5.78-6.05 8.61-3.76 4.36-7.09 8.77-10.1 13.7-0.572 0.766-0.572 0.766-1.16 1.55h-2c-0.269 0.73-0.537 1.46-0.814 2.21-1.16 2.73-2.49 4.96-4.16 7.41l-1.77 2.62c-0.62 0.909-1.24 1.82-1.88 2.76-5.32 7.9-10.5 15.8-15.4 24l-1.33 2.25c-14.2 24-26.2 49.6-35.7 75.8-0.599 1.62-0.599 1.62-1.21 3.28-2.97 8.23-5.66 16.5-8.22 24.9-0.502 1.62-1.03 3.23-1.57 4.83-2.48 7.57-4.32 15.3-6.13 23-0.381 1.62-0.381 1.62-0.769 3.27-1.54 6.72-2.73 13.4-3.67 20.2-0.434 2.48-0.434 2.48-1.43 3.48-0.286 1.56-0.515 3.13-0.719 4.71l-0.385 2.95-0.396 3.15-0.408 3.17c-0.804 6.36-1.49 12.7-1.88 19.1-0.211 1.91-0.211 1.91-1.21 2.91-1.19 9.95-1.15 20-1.13 30-6.76e-4 1.5-0.00165 2.99-0.0029 4.49-0.00146 3.11 6.25e-4 6.22 0.00534 9.33 0.0057 3.95 0.00241 7.9-0.00357 11.8-0.00365 3.08-0.00245 6.16 1.28e-4 9.24 6.58e-4 1.45-1.19e-4 2.91-0.00248 4.36-0.0113 8.91-0.0216 17.9 1.14 26.7l1 1c0.253 1.9 0.445 3.8 0.613 5.7 0.111 1.2 0.223 2.39 0.337 3.63 0.119 1.29 0.239 2.59 0.362 3.92 2.08 21.3 6.74 41.9 11.7 62.8h2c0.049 0.592 0.098 1.18 0.148 1.79 0.559 5.91 1.51 10.2 4.85 15.2 0.444 2.05 0.813 4.11 1.12 6.19l0.508 3.29c0.182 1.25 0.182 1.25 0.367 2.52h2c0.66 2.31 1.32 4.62 2 7-0.33 0.33-0.66 0.66-1 1 0.66 0.99 1.32 1.98 2 3 2.92 4.37 4.3 7.71 4 13h2l1.03 2.34c22.3 50.4 49.6 97.7 87 139 1.85 2.03 3.65 4.1 5.44 6.19 5.72 6.56 11.9 12.5 18.5 18.2 2.07 1.84 4.02 3.77 5.96 5.75 3.84 3.88 7.85 7.46 12 11l2.94 2.53c7.49 6.43 15.2 12.6 23.1 18.5l1.79 1.34c19.8 14.8 40.6 27.6 62.2 39.7 1.26 0.703 1.26 0.703 2.55 1.42 50.5 27.9 108 45.6 165 52.6 1.74 0.222 1.74 0.222 3.52 0.449 102 12.5 206-8.77 359-102 5.12-4.06 10.1-8.32 15-12.6 0.735-0.634 1.47-1.27 2.23-1.92 1.94-1.68 3.86-3.38 5.77-5.08 0.789-0.696 1.58-1.39 2.39-2.11 5-4.45 9.79-9.01 14.4-13.8 4.98-4.62 8.38-6.5 15.1-6.39 0.808 0.0335 1.62 0.067 2.45 0.102 0.831 0.018 1.66 0.0361 2.52 0.0547 2.04 0.0468 4.07 0.119 6.11 0.195-2 2.34-4 4.67-6 7-0.553 0.648-1.11 1.3-1.68 1.96-6.03 7.01-12.5 13.4-19.5 19.4-1.65 1.45-3.18 2.96-4.7 4.55-2.12 2.06-2.12 2.06-4.12 2.06v2c-1.81 1.67-1.81 1.67-4.44 3.75l-3.05 2.44c-0.562 0.447-1.12 0.895-1.7 1.36-1.92 1.55-3.8 3.12-5.69 4.71-41.3 34.7-88.5 61.4-139 79.8-1.28 0.47-1.28 0.47-2.59 0.949-4.78 1.75-9.58 3.43-14.4 5.05-1.19 0.401-1.19 0.401-2.4 0.81-35.4 11.8-71.6 19.1-109 23.2-0.989 0.119-1.98 0.237-3 0.359-53.5 6.3-110 1.25-162-11.4-1.03-0.244-2.06-0.489-3.12-0.741-23.7-5.7-46.9-13.1-69.5-22.5-3.43-1.42-6.88-2.72-10.4-3.97-51-18.3-105-54.1-142-93.3-1.72-1.72-3.52-3.29-5.37-4.88-6.89-5.96-13.2-12.5-19.2-19.4-1.62-1.84-3.27-3.64-4.96-5.42-7.01-7.41-13.5-15-19.7-23.1-1.87-2.43-3.78-4.82-5.68-7.22-8.15-10.3-15.4-21.1-22.6-32-1.81-2.74-3.65-5.45-5.54-8.13-16.6-23.8-29.1-51.1-39.9-78l-1.47-3.66c-9.1-23.1-9.1-23.1-9.1-28.7l-2-1 1-2-2-1c-0.393-2.32-0.507-4.62-0.656-6.97-0.17-1.01-0.17-1.01-0.344-2.03l-2-1 1-2h-2c-0.879-3.73-1.09-7.17-1-11l-2-1c-2.18-5.31-3.14-10.3-3-16l-2-2c-0.635-2.57-1.16-5.08-1.62-7.69l-0.406-2.11c-0.636-3.47-0.965-6.54-0.93-10.1 0.321-3.21 0.321-3.21-2.04-5.11-0.487-2.27-0.487-2.27-0.816-5.1-0.124-1.04-0.248-2.08-0.376-3.15-0.122-1.11-0.244-2.22-0.37-3.37-0.194-1.69-0.194-1.69-0.392-3.41-0.967-8.65-1.67-17.3-2.05-26h-1c-0.123-17 0.0634-34 1-51h-2c0.164-0.544 0.327-1.09 0.496-1.65 0.583-2.72 0.599-5.17 0.566-7.96l-0.0234-3.23-0.0391-3.35c-0.0254-2.2-0.0465-4.4-0.0625-6.61-0.0116-0.975-0.0232-1.95-0.0352-2.95 0.0977-2.25 0.0977-2.25 1.1-3.25 0.338-2.58 0.62-5.15 0.867-7.73 0.165-1.62 0.331-3.25 0.496-4.87 0.255-2.55 0.508-5.11 0.756-7.66 0.895-9.14 1.9-18 4.21-27 0.73-3.02 1.19-6.02 1.61-9.1 1.01-6.88 2.66-13.6 4.43-20.3 0.72-2.75 1.42-5.51 2.12-8.27 0.524-2.05 1.05-4.1 1.57-6.15l0.743-2.93c1.25-4.82 2.63-9.48 4.44-14.1 0.807-2.1 1.52-4.22 2.22-6.37 1.55-4.71 3.24-9.37 4.96-14 0.287-0.782 0.574-1.56 0.869-2.37 10.7-29.1 23.6-57.2 40-83.5 1.99-3.2 3.86-6.44 5.7-9.73h2c0.309-0.949 0.619-1.9 0.938-2.88 1.06-3.12 1.06-3.12 2.06-5.12h2l2-6h2c0.383-1.08 0.383-1.08 0.773-2.18 1.31-3.01 2.88-5.32 4.85-7.95 0.713-0.958 1.43-1.92 2.16-2.9 0.731-0.981 1.46-1.96 2.21-2.97 1.36-1.9 2.71-3.79 4.06-5.69 2.82-3.88 5.76-7.54 8.97-11.1 1.98-2.23 3.9-4.5 5.82-6.79 4.63-5.53 9.38-10.9 14.3-16.2 2.69-2.91 5.17-5.89 7.54-9.06 2.76-3.66 5.78-6.58 9.32-9.48 2.47-2.11 4.7-4.4 6.99-6.7 3.47-3.24 6.98-6.43 10.5-9.62 1.35-1.23 2.68-2.47 4.02-3.71 6.25-5.74 12.8-11 19.5-16.2 2.03-1.56 4.04-3.13 6.06-4.71 9.4-7.29 19-14.2 28.9-20.8 0.867-0.579 0.867-0.579 1.75-1.17 9.4-6.26 19.1-11.9 28.9-17.5 2.12-1.21 4.23-2.43 6.34-3.66 14.3-8.28 29.2-15.4 44.6-21.3 3.29-1.28 6.55-2.62 9.8-3.99 7.91-3.31 16-6.18 24-9.05 2.15-0.772 4.3-1.56 6.45-2.37 5.68-2.15 11.3-3.81 17.2-5.18 2.87-0.685 2.87-0.685 5.8-1.71 3.01-1 5.99-1.75 9.09-2.44 3.42-0.77 6.84-1.54 10.2-2.35 6.22-1.48 12.4-2.74 18.7-3.68 3.08-0.509 3.08-0.509 6.57-1.49 5.33-1.36 10.7-1.97 16.2-2.6 1.1-0.13 2.2-0.26 3.33-0.394 8.8-1 17.6-1.58 26.4-1.92 1.75-0.0914 3.5-0.217 5.25-0.366 10.7-0.905 21.4-0.948 32.1-0.947zm53.1 2.19v1h6v-1h-6zm-544 424 1 2zm-4 31v11h1v-11h-1zm2 93 1 2zm1 7 1 4zm1 7v5h1v-5h-1zm3 20 1 2zm1 5 1 4zm1 6 1 3zm3 13 1 2zm1 5 1 2zm4 15 1 2zm17 13 1 2zm5 14 1 2zm5 14 1 2zm4 10 1 2zm3 6 1 3zm1 3 1 2zm4 9 1 2zm1 2 1 2zm5 10 1 2zm5 10 1 2z" fill="#FAFBFD"/>
<path transform="translate(307,199)" d="m0 0c14.1-0.0943 28.1-0.164 42.2-0.207 6.53-0.0207 13.1-0.0488 19.6-0.0945 6.32-0.044 12.6-0.0675 19-0.0778 2.39-0.0073 4.78-0.0215 7.17-0.0434 30.7-0.269 62.9 3.61 87.1 24.4 2.15 2.25 4.06 4.56 6 7 0.66 0.33 1.32 0.66 2 1 1.02 1.99 2.02 3.99 3 6 0.66 0.66 1.32 1.32 2 2 1.21 2.44 2.35 4.88 3.44 7.38 0.313 0.717 0.626 1.43 0.948 2.17 4.5 10.6 6.74 21.4 6.75 32.9 9.57e-4 0.684 0.00191 1.37 0.0029 2.07 6.76e-4 1.44-0.00114 2.87-0.00534 4.31-0.00536 2.18-3.45e-5 4.36 0.00635 6.54-6.61e-4 1.4-0.00194 2.81-0.00391 4.21-0.00113 1.26-0.00226 2.52-0.00342 3.82-0.655 18.3-8.97 35.9-21.4 49.1-9.12 8.42-25.8 20.5-38.7 20.5 0.99 2.97 1.98 5.94 3 9h2c0.99 2.64 1.98 5.28 3 8h2c0.0619 0.701 0.124 1.4 0.188 2.12 1.1 3.9 3.15 5.82 5.81 8.88 0.667 2 1.33 4 2 6 0.99 0.66 1.98 1.32 3 2 1.06 2.37 1.06 2.37 2 5 1.2 2.87 2.44 4.49 4.56 6.88 2.57 3.3 2.97 5.07 3.44 9.12 0.66 0.33 1.32 0.66 2 1 1.01 1.66 2.01 3.33 3 5l1.56 1.5c1.87 1.95 2.49 3.99 3.44 6.5 1.75 2.89 1.75 2.89 3.56 4.44 1.44 1.56 1.44 1.56 1.88 3.44 0.792 2.99 2.6 4.76 4.56 7.12 2.86 4.34 2.86 4.34 3.44 7.06 0.444 2.11 0.444 2.11 2.38 3.75 3.77 3.77 5.9 8.02 7.19 13.2 0.474 0.474 0.949 0.949 1.44 1.44 1.56 1.56 1.56 1.56 2.44 3.81 1.03 2.51 2.07 4.12 3.69 6.25 2.08 2.79 3.12 4.96 3.44 8.5 0.99 0.33 1.98 0.66 3 1 1.82 4.24 2.38 8.45 3 13-5.87 0.223-11.7 0.386-17.6 0.494-2 0.0452-3.99 0.107-5.99 0.185-16.5 0.629-16.5 0.629-20.9-2.38-1.61-2.37-2.55-4.6-3.52-7.29-0.891-1.57-1.81-3.13-2.75-4.66-0.94-1.65-1.88-3.31-2.81-4.96-0.77-1.36-0.77-1.36-1.56-2.74-2.7-4.75-5.38-9.51-8.06-14.3-6.07-10.8-12.2-21.5-18.5-32.2-4.98-8.5-9.9-17-14.8-25.6-3.1-5.38-6.23-10.7-9.4-16.1-0.606-1.02-1.21-2.04-1.84-3.09-1.15-1.93-2.31-3.85-3.47-5.78-0.509-0.852-1.02-1.7-1.54-2.58-0.449-0.746-0.898-1.49-1.36-2.26-0.955-1.83-0.955-1.83-0.955-3.83-0.66-0.33-1.32-0.66-2-1-0.667-2-1.33-4-2-6-0.66-0.33-1.32-0.66-2-1v-3h-60c-0.33 45.5-0.66 91.1-1 138h-38c-1.01-3.04-1.13-5.06-1.13-8.24-0.00261-1.09-0.00522-2.18-0.0079-3.31 0.00223-1.2 0.00446-2.41 0.00676-3.65-0.00156-1.28-0.00312-2.55-0.00473-3.86-0.00419-3.55-0.00211-7.09 9.86e-4 -10.6 0.00226-3.82-0.00123-7.64-0.00398-11.5-0.00445-7.49-0.00348-15-5.87e-4 -22.5 0.00226-6.08 0.00257-12.2 0.00148-18.3-1.53e-4 -0.865-3.06e-4 -1.73-4.64e-4 -2.62-3.2e-4 -1.76-6.44e-4 -3.51-9.73e-4 -5.27-0.00285-16.5 4.31e-4 -33 0.0058-49.5 0.00447-14.2 0.00369-28.3-9.19e-4 -42.5-0.00535-16.4-0.00746-32.9-0.00439-49.3 3.19e-4 -1.75 6.33e-4 -3.5 9.43e-4 -5.25 2.31e-4 -1.29 2.31e-4 -1.29 4.68e-4 -2.61 8.65e-4 -6.08-5.97e-4 -12.2-0.00295-18.2-0.0028-7.41-0.00206-14.8 0.00328-22.2 0.00264-3.78 0.00364-7.56 3.51e-4 -11.3-0.00351-4.09 6.69e-4 -8.18 0.00568-12.3-0.00223-1.21-0.00446-2.41-0.00676-3.65 0.00261-1.09 0.00522-2.18 0.0079-3.3 1.62e-4 -0.945 3.25e-4 -1.89 4.92e-4 -2.86 0.125-2.25 0.125-2.25 1.13-4.25zm39 36c-1.16 2.32-1.12 3.64-1.12 6.23-0.00137 0.886-0.00275 1.77-0.00417 2.69 0.0036 0.975 0.00719 1.95 0.0109 2.95-1.46e-4 1.02-2.92e-4 2.05-4.43e-4 3.1 6.99e-4 3.4 0.00849 6.8 0.0163 10.2 0.00186 2.35 0.00329 4.7 0.00429 7.05 0.00382 6.2 0.0137 12.4 0.0247 18.6 0.0102 6.32 0.0148 12.6 0.0198 19 0.0107 12.4 0.0278 24.8 0.0488 37.2 2.55 1.27 4.35 1.14 7.2 1.16 1.09 0.00961 2.18 0.0192 3.3 0.0291 1.19 0.00425 2.38 0.0085 3.6 0.0129 1.85 0.00855 1.85 0.00855 3.73 0.0173 2.63 0.00947 5.25 0.0164 7.88 0.0198 3.94 0.00643 7.88 0.0405 11.8 0.0723 25.7 0.109 53.8-0.0889 73.5-19.3 12.5-15.2 11.8-31.8 10.4-50.6-0.213-2.54-0.213-2.54-2.41-4.36-0.602-1.69-1.16-3.41-1.69-5.12-3.91-10.9-12.1-16.9-22.3-21.8-18.8-8.63-39.2-7.56-59.5-7.32-3.91 0.0416-7.82 0.0593-11.7 0.0793-7.61 0.0424-15.2 0.11-22.8 0.195z" fill="#F9FAFC"/>
<path transform="translate(831,199)" d="m0 0c4.95-0.0247 9.9-0.0429 14.8-0.0549 1.68-0.00503 3.37-0.0119 5.05-0.0205 2.42-0.0121 4.84-0.0178 7.25-0.0222 0.755-0.00516 1.51-0.0103 2.29-0.0156 5.34-5.75e-4 5.34-5.75e-4 7.56 1.11v122c4.76-2.85 4.76-2.85 8.19-6.62 13-15.3 30.7-25.3 50.8-27.4 23.9-1.48 47 1.48 65.9 17.5 6.56 6.15 10.6 12.3 14.1 20.5 0.804 1.7 0.804 1.7 1.62 3.44 4.49 11.6 6.26 22.3 7.14 34.7 0.141 1.95 0.141 1.95 1.23 3.86 0.0943 1.41 0.128 2.82 0.129 4.23 0.00315 0.874 0.0063 1.75 0.00955 2.65-0.00304 1.42-0.00304 1.42-0.00613 2.87 9.57e-4 0.969 0.00191 1.94 0.0029 2.94 6.81e-4 2.05-0.00117 4.1-0.00534 6.15-0.00535 3.15-5.31e-5 6.29 0.00635 9.44-6.61e-4 1.99-0.00194 3.98-0.00391 5.97 0.00202 0.946 0.00405 1.89 0.00613 2.87-0.00473 1.31-0.00473 1.31-0.00955 2.65-7.96e-4 0.771-0.00159 1.54-0.00241 2.34-0.127 1.9-0.127 1.9-1.13 3.9-0.103 1.37-0.146 2.74-0.158 4.11-0.00979 0.861-0.0196 1.72-0.0297 2.61-0.00576 0.947-0.0115 1.89-0.0174 2.87-0.0099 0.995-0.0198 1.99-0.03 3.02-0.0317 3.3-0.0564 6.6-0.0811 9.9-0.0206 2.28-0.0416 4.57-0.063 6.85-0.0553 6.02-0.105 12-0.153 18.1-0.0502 6.14-0.106 12.3-0.161 18.4-0.108 12.1-0.209 24.1-0.307 36.2h-36c-1.03-3.09-1.13-5.23-1.15-8.47-0.00834-1.14-0.0167-2.28-0.0253-3.45-0.00418-1.25-0.00837-2.5-0.0127-3.79-0.0127-2.02-0.0255-4.04-0.0382-6.06-0.0128-2.17-0.0231-4.35-0.0327-6.52-0.0203-4.54-0.0479-9.08-0.0767-13.6-0.0601-9.65-0.112-19.3-0.163-29-0.0552-10.4-0.112-20.8-0.178-31.2-0.0281-4.5-0.0518-9-0.0719-13.5-0.0135-2.82-0.0309-5.64-0.0493-8.46-0.0113-1.9-0.018-3.81-0.0244-5.71-0.0558-7.8-0.476-15.5-1.18-23.3h-1c-0.0735-0.905-0.0735-0.905-0.148-1.83-0.112-1.2-0.112-1.2-0.227-2.42-0.104-1.18-0.104-1.18-0.211-2.39-0.436-2.48-1.21-4.16-2.41-6.36-0.608-1.44-1.21-2.87-1.81-4.31-4.54-10.2-10.8-16.1-21.1-20.6-13.8-4.6-31.9-4.52-45.3 1.3-3.79 2.09-7.33 4.38-10.8 7.02-2.09 1.55-2.09 1.55-4.23 2.45-2.59 1.55-2.84 3.31-3.85 6.11-1.07 1.5-2.18 2.98-3.31 4.44-15 21-13 51.6-13.1 76-0.0177 2.71-0.0382 5.42-0.0587 8.13-0.0464 6.35-0.0833 12.7-0.117 19.1-0.0385 7.25-0.0879 14.5-0.138 21.7-0.103 14.9-0.191 29.8-0.273 44.6h-37c-1.01-3.04-1.13-5.06-1.13-8.24-0.00261-1.09-0.00522-2.18-0.0079-3.31 0.00223-1.2 0.00446-2.41 0.00676-3.65-0.00156-1.28-0.00312-2.55-0.00473-3.86-0.00419-3.55-0.00211-7.09 9.86e-4 -10.6 0.00226-3.82-0.00123-7.64-0.00398-11.5-0.00445-7.49-0.00348-15-5.87e-4 -22.5 0.00226-6.08 0.00257-12.2 0.00148-18.3-1.53e-4 -0.865-3.06e-4 -1.73-4.64e-4 -2.62-3.2e-4 -1.76-6.44e-4 -3.51-9.73e-4 -5.27-0.00285-16.5 4.31e-4 -33 0.0058-49.5 0.00447-14.2 0.00369-28.3-9.19e-4 -42.5-0.00535-16.4-0.00746-32.9-0.00439-49.3 3.19e-4 -1.75 6.33e-4 -3.5 9.43e-4 -5.25 2.31e-4 -1.29 2.31e-4 -1.29 4.68e-4 -2.61 8.65e-4 -6.08-5.97e-4 -12.2-0.00295-18.2-0.0028-7.41-0.00206-14.8 0.00328-22.2 0.00264-3.78 0.00364-7.56 3.51e-4 -11.3-0.00351-4.09 6.69e-4 -8.18 0.00568-12.3-0.00223-1.21-0.00446-2.41-0.00676-3.65 0.00261-1.09 0.00522-2.18 0.0079-3.3 1.62e-4 -0.945 3.25e-4 -1.89 4.92e-4 -2.86 0.125-2.25 0.125-2.25 1.13-4.25zm147 174 1 3z" fill="#FAFBFD"/>
<path transform="translate(734 311)" d="m0 0c13 11.6 13 11.6 15.5 17.2 0.66 0.825 1.32 1.65 2 2.5 1.73 2.16 2.81 4.03 4 6.5 0.495 0.66 0.99 1.32 1.5 2 6.14 8.19 9.51 19.3 12.2 29.1 0.198 0.694 0.397 1.39 0.601 2.1 3.07 11.4 4.01 22.7 3.96 34.5-0.00419 1.31-0.00838 2.62-0.0127 3.97-0.359 31.1-11.1 59.9-33.2 82.3-1.98 1.81-4.02 3.46-6.14 5.11-1.02 0.793-2.04 1.59-3.09 2.4-8.14 6.16-16.5 10.7-25.9 14.6-0.937 0.4-1.87 0.799-2.84 1.21-15.6 5.95-34.1 7.04-50.6 4.98-0.73-0.0906-1.46-0.181-2.21-0.274-28.3-3.72-52.7-17.3-70.3-39.9-11.4-16.1-11.4-16.1-13.1-25-0.66-0.33-1.32-0.66-2-1-0.625-3.06-0.625-3.06-1-6h-2l-0.438-2.69c-0.186-1.09-0.371-2.19-0.562-3.31-0.124-0.825-0.247-1.65-0.375-2.5-0.546-2.63-0.546-2.63-2.12-5.25-8.27-17.9-3.77-50.3 2.5-68.7 12.2-31.1 30-54.8 60.9-68.8 36.6-15 81.8-10.5 113 15.1zm-121 32.9c-6.41 7.8-11.3 15.7-14.5 25.3-0.439 1.15-0.439 1.15-0.887 2.32-3.97 10.8-4.47 22-4.43 33.4 0.00201 1.32 0.00403 2.63 0.0061 3.99 0.0258 15 0.0258 15 4.31 29.3 0.696 1.7 1.38 3.41 2.06 5.12 0.362 0.91 0.724 1.82 1.1 2.76 0.416 1.05 0.416 1.05 0.84 2.12h2c0.0619 0.722 0.124 1.44 0.188 2.19 0.862 2.98 1.92 4.19 4.18 6.24 2.09 2.01 3.93 4.19 5.82 6.38 11.7 12.9 26.4 21.3 44 22.3 19.9 0.974 37.9-2.66 53.5-15.9 12.5-11.9 22.5-28.7 23.5-46.2 0.0557-2.16 0.0827-4.32 0.095-6.48 0.0057-0.798 0.0114-1.6 0.0173-2.42 0.0094-1.68 0.016-3.37 0.0198-5.05 0.00963-2.53 0.0407-5.05 0.0723-7.58 0.0581-9.04-0.513-17.4-2.57-26.2-0.745-3.28-0.745-3.28-1.28-7.07-0.278-3.09-0.278-3.09-1.47-5.21h-2c-0.17-0.58-0.34-1.16-0.516-1.76-4.21-13.6-14.4-24-26.5-31.2-28.4-14.3-65.6-11.3-87.5 13.7zm120 35.3 1 2zm1 6 1 2zm1 10v17h1v-17h-1zm-179 22 1 4zm1 8v5h1v-5h-1z" fill="#F9FAFC"/>
<path transform="translate(1241,211)" d="m0 0c-0.33 0.99-0.66 1.98-1 3-0.0908 2.48-0.126 4.93-0.114 7.41-1.46e-4 0.751-2.92e-4 1.5-4.43e-4 2.28 6.97e-4 2.48 0.00848 4.97 0.0163 7.45 0.00187 1.72 0.00329 3.44 0.00429 5.17 0.00382 4.53 0.0136 9.06 0.0247 13.6 0.012 5.44 0.0166 10.9 0.0225 16.3 0.0097 8.26 0.0289 16.5 0.0462 24.8 17.5 0.33 35 0.66 53 1-0.33 9.9-0.66 19.8-1 30h-51c0.0855 18.6 0.179 37.3 0.288 55.9 0.0501 8.65 0.0965 17.3 0.134 26 0.033 7.54 0.0729 15.1 0.121 22.6 0.0252 3.99 0.047 7.99 0.0606 12 0.0129 3.76 0.035 7.52 0.064 11.3 0.0133 2.03 0.017 4.06 0.0203 6.09 0.0583 6.39 0.392 12 2.31 18.1h2c0.495 1.48 0.495 1.48 1 3 5.22 5.8 9.81 8.76 17.6 9.2 1.41 0.0212 2.82 0.0366 4.23 0.0469 0.667 0.0206 1.33 0.0412 2.02 0.0625 7.87 0.0579 14-1.68 22.2-3.31-0.33 10.2-0.66 20.5-1 31-7.88 3.38-7.88 3.38-11.9 3.95-0.88 0.126-1.76 0.251-2.67 0.381-0.898 0.118-1.8 0.236-2.72 0.357-0.886 0.13-1.77 0.259-2.69 0.393-17.8 2.45-36.5 0.171-51.3-10.7-5.14-4.35-8.48-9.51-11.7-15.4-0.392-0.706-0.784-1.41-1.19-2.14-0.812-1.86-0.812-1.86-0.812-4.86-0.66-0.33-1.32-0.66-2-1-0.35-1.66-0.682-3.33-1-5-0.66-0.99-1.32-1.98-2-3-0.262-2.77-0.262-2.77-0.278-6.21-0.0112-1.3-0.0223-2.6-0.0338-3.94-0.00237-1.44-0.00454-2.89-0.00655-4.33-0.0093-1.52-0.0195-3.04-0.0304-4.55-0.0273-4.12-0.0425-8.25-0.0554-12.4-0.0156-4.31-0.0424-8.62-0.068-12.9-0.0468-8.16-0.0836-16.3-0.117-24.5-0.0382-9.29-0.0876-18.6-0.138-27.9-0.103-19.1-0.191-38.2-0.273-57.3-14.8-0.33-29.7-0.66-45-1-1.32-2.63-1.13-4.61-1.13-7.56-0.00129-1.11-0.00258-2.22-0.00391-3.36 0.00387-1.16 0.00773-2.32 0.0117-3.52-0.0058-1.74-0.0058-1.74-0.0117-3.51 0.00129-1.11 0.00258-2.22 0.00391-3.36 0.00113-1.02 0.00226-2.04 0.00342-3.09 0.129-2.6 0.129-2.6 1.13-5.6h46c-0.058-4.13-0.116-8.26-0.176-12.5-0.0322-3.3-0.0593-6.6-0.083-9.9-0.0264-3.48-0.0616-6.96-0.118-10.4-0.0649-3.99-0.089-7.99-0.111-12-0.0258-1.24-0.0516-2.49-0.0782-3.77-0.00312-9.6-0.00312-9.6 2.96-12.6 2.34-1.59 4.58-3.05 7.1-4.33 6.93-3.61 13.7-7.54 20.4-11.5 0.886-0.511 1.77-1.02 2.68-1.55 0.799-0.465 1.6-0.929 2.42-1.41 1.98-1.01 1.98-1.01 3.98-1.01zm-2 118v33h1v-33h-1zm0 35v85h1v-85h-1zm-36 110 1 3z" fill="#F8F9FB"/>
<path transform="translate(308,608)" d="m0 0c4.29-0.274 8.57-0.472 12.9-0.604 1.46-0.0551 2.91-0.13 4.37-0.226 4.79-0.307 9.09-0.357 13.8 0.83 3.43 3.2 5.12 6.75 7 11 0.757 1.3 1.53 2.59 2.34 3.86 0.681 1.15 1.36 2.3 2.04 3.45 2.95 4.96 5.98 9.85 9.12 14.7 4.24 6.54 8.26 13.2 12.2 19.9 2.85 4.78 5.71 9.54 8.58 14.3 2.7 4.49 5.38 8.98 8.04 13.5 0.546 0.921 1.09 1.84 1.66 2.79 1.05 1.78 2.1 3.56 3.15 5.34 0.473 0.796 0.947 1.59 1.43 2.41 0.416 0.705 0.832 1.41 1.26 2.14 1.05 1.79 1.05 1.79 3.14 2.63-0.0303-0.595-0.0606-1.19-0.0918-1.8-0.922-19.2-1.02-38.5-1.03-57.8-0.00162-2.07-0.00518-4.13-0.00919-6.2-0.00698-3.93-0.0044-7.85-2.44e-4 -11.8-0.00198-1.2-0.00397-2.39-0.00601-3.63 0.00311-1.11 0.00622-2.21 0.00943-3.35 7.96e-4 -0.967 0.00159-1.93 0.00241-2.93 0.118-2.39 0.249-4.33 1.13-6.56 3.05-1.02 5.35-1.2 8.54-1.32 1.07-0.0419 2.15-0.0838 3.25-0.127 1.12-0.0393 2.24-0.0786 3.39-0.119 1.13-0.0432 2.26-0.0864 3.43-0.131 2.79-0.106 5.59-0.208 8.38-0.307-0.0303 1.24-0.0606 2.48-0.0918 3.76-0.785 33.1-0.999 66.1-0.971 99.2 8.56e-4 0.992 0.00171 1.98 0.00259 3.01 0.0114 12.3 0.0315 24.7 0.0599 37-4.29 0.249-8.57 0.429-12.9 0.549-1.46 0.0501-2.91 0.118-4.37 0.205-12 0.702-12 0.702-16.2-2.8-1.82-2.57-3.22-5.11-4.58-7.95-0.688-1.11-1.38-2.21-2.09-3.35-0.567-0.984-1.13-1.97-1.72-2.98-0.657-1.13-1.31-2.26-1.99-3.43-0.338-0.587-0.677-1.17-1.03-1.78-1.85-3.21-3.71-6.4-5.58-9.6-0.382-0.656-0.764-1.31-1.16-1.99-3.91-6.69-7.91-13.3-11.9-19.9-0.344-0.565-0.688-1.13-1.04-1.71-3.68-6.05-7.38-12.1-11.1-18.1-1.6-2.61-3.19-5.22-4.78-7.83-1.13-1.85-2.27-3.7-3.41-5.55-0.679-1.11-1.36-2.22-2.06-3.37-0.604-0.984-1.21-1.97-1.83-2.98-1.29-2.35-1.29-2.35-1.29-4.35h-3v97h-25c-0.936-2.81-1.13-4.55-1.16-7.45-0.00979-0.912-0.0196-1.82-0.0297-2.76-0.00576-0.999-0.0115-2-0.0174-3.03-0.0099-1.05-0.0198-2.11-0.03-3.19-0.0317-3.5-0.0564-7.01-0.0811-10.5-0.0206-2.45-0.0416-4.9-0.063-7.35-0.0553-6.48-0.105-13-0.153-19.4-0.0399-5.22-0.084-10.4-0.128-15.6-0.0535-6.3-0.105-12.6-0.156-18.9-0.00956-1.17-0.0191-2.34-0.029-3.55-0.0533-6.65-0.0966-13.3-0.132-19.9-0.0236-3.37-0.0633-6.74-0.104-10.1-0.0186-2.19-0.037-4.37-0.055-6.56-0.0161-1.01-0.0321-2.02-0.0487-3.06-0.00548-0.932-0.011-1.86-0.0166-2.82-0.00931-0.814-0.0186-1.63-0.0282-2.47 0.255-2.47 0.992-4.09 2.23-6.23zm-1 21v7h1v-7h-1zm92 36v9h1v-9h-1z" fill="#FBFCFE"/>
<path transform="translate(1080,292)" d="m0 0h38c-0.33 73.9-0.66 148-1 224h-37c-1.3-3.89-1.14-7.57-1.13-11.6-0.00156-0.891-0.00312-1.78-0.00473-2.7-4e-3 -3-8.24e-4 -5.99 0.00232-8.99-0.00135-2.14-0.00313-4.29-0.00531-6.43-0.00457-5.83-0.00279-11.7 3.79e-4 -17.5 0.00253-6.09 1.85e-4 -12.2-0.00139-18.3-0.00182-10.2 5.83e-4 -20.5 0.00534-30.7 0.00544-11.8 0.00368-23.7-0.00183-35.5-0.00453-10.2-0.00518-20.3-0.00256-30.5 0.00156-6.07 0.00176-12.1-0.00154-18.2-0.00288-5.71-8.97e-4 -11.4 0.00489-17.1 0.00133-2.1 9.36e-4 -4.2-0.00126-6.29-0.00272-2.86 6.78e-4 -5.71 0.00568-8.57-0.00223-0.837-0.00446-1.67-0.00676-2.54 0.0112-3.28 0.0875-5.94 1.13-9.08z" fill="#FAFBFD"/>
<path transform="translate(662,647)" d="m0 0c-0.161 0.524-0.323 1.05-0.489 1.59-0.645 3.05-0.662 5.91-0.688 9.03-0.00657 0.656-0.0131 1.31-0.0199 1.99-0.0196 2.16-0.0314 4.32-0.0414 6.49-0.00408 0.74-0.00815 1.48-0.0124 2.24-0.0208 3.92-0.0351 7.83-0.0445 11.7-0.0111 4.04-0.0455 8.08-0.0852 12.1-0.0262 3.11-0.0345 6.22-0.0381 9.33-0.00487 1.49-0.0165 2.98-0.035 4.47-0.0244 2.08-0.0234 4.17-0.0165 6.25-0.00587 1.18-0.0117 2.37-0.0178 3.59 0.72 4.66 3.12 6.99 6.61 9.97 5.26 2.17 10.3 2.19 15.6 0.0977 1.72-0.868 3.43-1.77 5.11-2.72 2.13-1.19 2.13-1.19 5.13-2.19-0.00222-0.828-0.00444-1.66-0.00673-2.51-0.0201-7.81-0.0353-15.6-0.0451-23.4-0.00521-4.02-0.0123-8.03-0.0236-12-0.0109-3.88-0.0168-7.75-0.0194-11.6-0.00185-1.48-0.00545-2.96-0.0109-4.43-0.00728-2.07-0.00826-4.15-0.0078-6.22-0.00222-1.18-0.00444-2.36-0.00673-3.57 0.109-2.84 0.466-5.38 1.12-8.14 18.8-2.3 18.8-2.3 28-2-0.16 0.507-0.32 1.01-0.485 1.54-0.686 3.28-0.709 6.52-0.752 9.86-0.0131 0.739-0.0262 1.48-0.0397 2.24-0.0417 2.44-0.0763 4.87-0.11 7.31-0.0257 1.69-0.0514 3.39-0.0773 5.08-0.0529 3.55-0.102 7.09-0.148 10.6-0.0605 4.55-0.135 9.1-0.212 13.7-0.0575 3.49-0.106 6.99-0.152 10.5-0.0235 1.68-0.0502 3.36-0.0803 5.04-0.041 2.34-0.0693 4.68-0.0943 7.02-0.015 0.697-0.0299 1.39-0.0454 2.11-0.0111 1.68 0.0835 3.35 0.196 5.03 2.5 2.5 3.67 2.36 7.12 2.62 0.91 0.0748 1.82 0.15 2.76 0.227 1.05 0.0735 1.05 0.0735 2.12 0.148 0.33 1.65 0.66 3.3 1 5h-1c-0.0374 0.759-0.0748 1.52-0.113 2.3-0.0657 0.994-0.131 1.99-0.199 3.01-0.058 0.986-0.116 1.97-0.176 2.99-0.574 3.03-1.06 3.91-3.51 5.7-5.7 2.78-11.7 3.86-18 3-5.17-1.79-7.87-4.56-11-9-1.31-3.38-1.31-3.38-2-6-4.05 0.574-6.38 2.71-9.5 5.25-9.19 7.08-17.3 10.8-29.2 9.38-8.82-1.67-13.9-4.49-19.8-11.3-1.61-2.49-2.12-4.4-2.5-7.32h-2c-1.48-2.96-1.14-5.97-1.13-9.22-0.00175-0.743-0.0035-1.49-0.00531-2.25-0.00441-2.46-0.00148-4.93 0.00189-7.39-6.73e-4 -1.71-0.00164-3.42-0.0029-5.13-0.00148-3.59 6.75e-4 -7.18 0.00534-10.8 0.00568-4.6 0.00243-9.2-0.00357-13.8-0.00362-3.54-0.00246-7.07 1.28e-4 -10.6 6.66e-4 -1.7-1.49e-4 -3.39-0.00248-5.09-0.00255-2.37 0.00134-4.75 0.0069-7.12-0.00202-0.699-0.00405-1.4-0.00613-2.12 0.0157-3.62 0.28-6.96 1.14-10.5 18.8-2.3 18.8-2.3 28-2zm-28 35v27h1v-27h-1zm0 45 1 4z" fill="#FCFDFF"/>
<path transform="translate(560 652)" d="m0 0c5.02 4.52 8.26 8.43 8.81 15.4 0.212 5.29 0.0792 10.6-0.0559 15.9-0.0257 1.9-0.049 3.79-0.0698 5.69-0.142 10.8-0.398 21.5-1.19 32.3-0.132 1.95-0.168 3.91-0.181 5.87 2.5 2.5 3.67 2.36 7.12 2.62 0.91 0.0748 1.82 0.15 2.76 0.227 1.05 0.0735 1.05 0.0735 2.12 0.148 1.98 5.62 0.0524 11.6-2 17-3.41 3.58-8.34 4.75-13.1 5.2-5.06 0.107-8.54-0.262-12.9-3.2-3.67-3.75-5.67-6.93-7-12h-3c-0.495 1.49-0.495 1.49-1 3-3.79 3.29-7.89 6.13-12 9-0.675 0.51-1.35 1.02-2.05 1.55-5.5 3.55-11.1 2.41-17.3 1.34-8.62-2.11-14.7-6.52-19.6-13.9-1.27-2.66-2.14-5.17-3-8h-1c-0.527-10.1 0.166-19.6 7.01-27.5 6.57-5.07 13.8-6.64 21.9-8.16 1.02-0.204 2.05-0.407 3.11-0.617 2.03-0.403 4.06-0.799 6.1-1.19 1.9-0.371 3.8-0.757 5.7-1.16 4.49-0.957 8.6-1.65 13.2-1.41-0.0331-2.73-0.1-5.46-0.188-8.19-0.0058-0.769-0.0116-1.54-0.0176-2.33-0.164-4.25-0.432-6.02-3.16-9.47-4.68-3.57-8.99-3.46-14.6-3.01-7.76 1.21-14.2 4.46-21 8.31-4.75 2.69-4.75 2.69-8.04 2.69-0.289-0.742-0.577-1.49-0.875-2.25-0.998-2.66-0.998-2.66-2.25-4.56-1.68-4.19-1.3-8.43-0.266-12.7 1.97-3.5 4.29-4.39 7.89-6.1 0.628-0.299 1.26-0.598 1.9-0.907 18.4-8.55 40.3-9.85 58.3 0.446zm-67.7 13.1 1 4zm36.6 41.7c-1.15 0.257-2.3 0.514-3.48 0.779-1.66 0.393-1.66 0.393-3.35 0.795-1.52 0.355-1.52 0.355-3.07 0.718-3.12 1.17-4.62 2.46-6.72 5.02-0.961 2.88-1.11 4.7-1.06 7.69 0.00902 0.808 0.018 1.62 0.0273 2.45 0.0116 0.615 0.0232 1.23 0.0352 1.86h2l4 4c5.63 1.88 9.81 1.35 15.1-1.12 6.13-3.29 6.13-3.29 9.88-8.88 0.695-5.01 0.929-9.95 1-15-4.16-2.08-10 0.65-14.4 1.69z" fill="#FBFCFE"/>
<path transform="translate(1188 653)" d="m0 0c4.02 3.32 7.04 6.35 8.77 11.4-0.495 1.49-0.495 1.49-1 3 0.495 1.49 0.495 1.49 1 3 0.1 2.99 0.141 5.95 0.125 8.94-0.00193 0.887-0.00387 1.77-0.00586 2.69-0.0445 7-0.363 14-0.759 21-0.319 5.87-0.471 11.7-0.485 17.6-0.00451 0.773-0.00902 1.55-0.0137 2.34-0.312 3.53-0.312 3.53 1.14 6.47 1.85 0.234 3.7 0.413 5.56 0.562 1.52 0.126 1.52 0.126 3.07 0.254 0.782 0.0606 1.56 0.121 2.37 0.184 0 14.8 0 14.8-3.52 18.7-6.09 3.55-13.8 4.5-20.6 2.75-5.65-2.27-7.62-5.79-10.1-11.2-0.812-2.24-0.812-2.24-0.812-4.24-0.461 0.424-0.923 0.848-1.4 1.29-17.4 15.7-17.4 15.7-26.2 15.7-10.4-1.47-18.4-3.79-25.4-12-4-5.41-4-5.41-4-9h-2c-0.408-10.5-0.618-19.8 6.06-28.4 7.31-7.37 17.8-8.68 27.7-10.5 2.1-0.388 4.2-0.791 6.3-1.2 11.1-2.11 11.1-2.11 16-1.94 0.0813-2.56 0.141-5.12 0.188-7.69 0.0251-0.721 0.0503-1.44 0.0762-2.19 0.063-4.6-0.408-7.48-3.26-11.1-5.05-3.21-11.7-2.6-17.4-1.57-8.62 2.3-17.2 6.64-24.6 11.6-2.61-1.3-2.93-2.31-4-5-0.414-2.84-0.414-2.84-0.625-5.94-0.0748-1.02-0.15-2.04-0.227-3.09-0.133-2.66-0.178-5.31-0.148-7.97 20.5-11.2 47.2-19.5 68.2-4.39zm5.77 10.4 1 2zm-36.8 43.7c-1.09 0.244-2.19 0.489-3.31 0.74-8.13 1.92-8.13 1.92-13.9 7.57-0.868 2.3-0.868 2.3-0.938 4.62-0.0709 0.755-0.142 1.51-0.215 2.29 0.00276 2.4 0.00276 2.4 2.15 5.09 4.32 3.02 7.5 4.69 13 4.39 3.73-0.711 6.88-2.34 10-4.39 1.31-0.758 1.31-0.758 2.66-1.53 3.49-3.68 3.35-7.3 3.66-12.2 0.0728-0.888 0.146-1.78 0.221-2.69 0.176-2.19 0.331-4.37 0.467-6.56-4.64 0-9.32 1.62-13.8 2.69zm12.8 7.31v7h1v-7h-1z" fill="#FBFCFE"/>
<path transform="translate(1e3 646)" d="m0 0c0.124 1.05 0.247 2.1 0.375 3.19 0.741 5.96 1.69 11.9 2.62 17.8h2c2 8 2 8 2.44 10.1 0.541 2.22 0.541 2.22 2.56 4.92 0.327 2.29 0.439 4.54 0.559 6.84 0.244 2.24 0.244 2.24 1.91 3.56 2.76 2.88 2.45 6.96 2.9 10.8 0.679 3.05 1.36 3.8 3.62 5.81 0.75 3.12 0.75 3.12 1 6-0.33 0.33-0.66 0.66-1 1 0.99 1.49 0.99 1.49 2 3 0.33 0.66 0.66 1.32 1 2h2c0.147-0.578 0.294-1.16 0.445-1.75 2.48-9.41 5.53-18.6 8.55-27.9 0.539-1.66 1.08-3.31 1.62-4.97 1.97-6.06 3.95-12.1 5.99-18.2 0.978-2.93 1.88-5.84 2.57-8.85 0.155-0.668 0.31-1.34 0.469-2.02 0.182-0.806 0.363-1.61 0.55-2.44 0.598-2.62 1.2-5.24 1.81-7.94h25c-3.37 11.2-3.37 11.2-5.06 16.1-0.38 1.1-0.759 2.19-1.15 3.32-0.608 1.75-0.608 1.75-1.23 3.53-0.895 2.58-1.79 5.16-2.68 7.74-0.233 0.671-0.466 1.34-0.705 2.03-1.98 5.72-3.94 11.5-5.9 17.2-2.26 6.63-4.54 13.2-6.82 19.9-0.949 2.75-1.89 5.51-2.83 8.26-9 26.4-17.6 47.9-43.6 61.2-14 6.84-14 6.84-19.1 6.75-3.48-1.67-5.61-4.01-8-7-0.614-0.761-1.23-1.52-1.86-2.3-4.25-5.79-4.25-5.79-3.79-9.47 0.215-0.735 0.431-1.47 0.652-2.23 1.6-0.402 1.6-0.402 3.23-0.812 10.3-2.72 18.9-6.23 27.8-12.2 0.969-0.641 1.94-1.28 2.94-1.94 2.51-1.89 4.36-3.41 6.06-6.06 0.229-3.67-0.426-6.68-2-10-0.99-0.495-0.99-0.495-2-1-0.709-1.98-1.4-3.98-2.04-5.98-1.16-3.61-2.39-7.19-3.65-10.8-0.249-0.71-0.499-1.42-0.755-2.15-2.53-7.13-5.25-14.2-8.02-21.2-0.33-0.851-0.661-1.7-1-2.58-0.297-0.756-0.594-1.51-0.9-2.29-0.639-2-0.639-2-0.639-5-0.66-0.33-1.32-0.66-2-1 0.33-0.66 0.66-1.32 1-2-0.66-0.33-1.32-0.66-2-1-0.746-1.79-0.746-1.79-1.44-4.06-0.986-3.15-2.04-6.24-3.25-9.31-1.31-3.62-1.31-3.62-1.31-6.62-0.66-0.33-1.32-0.66-2-1-0.633-2.29-0.633-2.29-1.12-5.06-0.168-0.919-0.335-1.84-0.508-2.79-0.121-0.71-0.242-1.42-0.367-2.15h-2v-7c4.88-0.922 9.68-1.3 14.6-1.56 0.75-0.0432 1.5-0.0864 2.27-0.131 3.37-0.188 6.72-0.307 10.1-0.307zm-2 4c0.66 1.32 1.32 2.64 2 4v-4h-2zm6 21 1 2zm4 12 1 2zm4 12 1 2zm5 15 1 3z" fill="#F8F9FB"/>
<path transform="translate(818,625)" d="m0 0v2h-2c0.33 6.6 0.66 13.2 1 20 13.4 0.495 13.4 0.495 27 1-0.33 5.94-0.66 11.9-1 18h-26c-0.669 4.01-1.13 7.32-1.19 11.3-0.0161 1.01-0.0321 2.02-0.0487 3.05-0.0447 4.56-0.0854 9.11-0.109 13.7-0.0166 2.41-0.044 4.81-0.082 7.22-0.0546 3.48-0.0766 6.95-0.0913 10.4-0.0227 1.08-0.0453 2.15-0.0687 3.26-0.111 5.9-0.111 5.9 2.94 10.7 7.58 3.87 13.5 2.33 21.3-0.0874 2.36-0.559 2.36-0.559 4.36 0.441-0.256 2.56-0.529 5.13-0.812 7.69-0.0703 0.721-0.141 1.44-0.213 2.19-0.495 4.34-1.09 7.68-3.97 11.1-9.95 5.15-21.3 6.24-32 3-6.86-2.62-12-6.75-16-13-0.724-1.98-1.4-3.98-2-6h-1c-0.0648-12.3 0.0961-24.6 0.372-36.9 0.0661-2.99 0.125-5.98 0.184-8.98 0.0419-1.91 0.0842-3.83 0.127-5.74 0.0167-0.888 0.0334-1.78 0.0506-2.69 0.0199-0.826 0.0399-1.65 0.0604-2.5 0.0155-0.721 0.0311-1.44 0.0471-2.19 0.158-2.04 0.158-2.04 1.16-6.04h-15c-0.942-4.71-0.855-7.2-0.0625-11.8 0.195-1.16 0.389-2.32 0.59-3.52 0.156-0.88 0.312-1.76 0.473-2.67h12c-0.0232-0.892-0.0464-1.78-0.0703-2.7-0.0271-1.76-0.0271-1.76-0.0547-3.55-0.0232-1.16-0.0464-2.32-0.0703-3.52 0.196-3.24 0.384-4.61 2.2-7.23 2.47-1.22 2.47-1.22 5.56-2.21 1.11-0.357 2.22-0.714 3.36-1.08 1.16-0.357 2.32-0.714 3.52-1.08 1.16-0.38 2.32-0.761 3.51-1.15 8.67-2.73 8.67-2.73 12.1-0.473z" fill="#FCFDFF"/>
<path transform="translate(1293,595)" d="m0 0c-0.03 0.699-0.0599 1.4-0.0908 2.12-0.837 20.6-1.01 41.2-1.01 61.9 9.65e-5 0.999 9.65e-5 0.999 1.95e-4 2.02 0.00165 8.25 0.012 16.5 0.0254 24.8 0.0114 7.13 0.0167 14.3 0.0217 21.4 0.0103 14.6 0.0286 29.2 0.0503 43.8h-28c-0.721-4.32-1.13-7.83-1.13-12.1-0.00282-1.21-0.00564-2.41-0.00854-3.65 0.00202-1.31 0.00405-2.62 0.00613-3.97-0.00136-1.4-0.00314-2.81-0.00531-4.21-0.00455-3.8-0.0028-7.6 3.79e-4 -11.4 0.00254-3.98 1.83e-4 -7.96-0.00139-11.9-0.00182-6.68 5.74e-4 -13.4 0.00534-20 0.00545-7.72 0.00368-15.4-0.00183-23.2-0.00454-6.63-0.00518-13.3-0.00256-19.9 0.00156-3.96 0.00177-7.92-0.00154-11.9-0.00289-3.72-8.86e-4 -7.44 0.00489-11.2 0.00195-2.02-0.00102-4.03-0.00413-6.05 0.00282-1.2 0.00564-2.4 0.00854-3.64 5.66e-4 -1.56 5.66e-4 -1.56 0.00114-3.16 0.112-2.4 0.435-4.42 1.13-6.71 23.2-3 23.2-3 29-3zm-29 8v5h1v-5h-1zm1 80v32h1v-32h-1z" fill="#FCFDFF"/>
<path transform="translate(70,719)" d="m0 0c2.12 2.71 3.87 5.44 5.5 8.47 17.5 32.1 38.8 62.4 63.6 89.4 1.85 2.03 3.65 4.1 5.44 6.19 5.72 6.56 11.9 12.5 18.5 18.2 2.07 1.84 4.02 3.77 5.96 5.75 3.84 3.88 7.85 7.46 12 11 0.969 0.835 1.94 1.67 2.94 2.53 7.49 6.43 15.2 12.6 23.1 18.5 0.59 0.443 1.18 0.887 1.79 1.34 19.8 14.8 40.6 27.6 62.2 39.7 1.26 0.703 1.26 0.703 2.55 1.42 50.5 27.9 108 45.6 165 52.6 1.16 0.148 2.33 0.296 3.52 0.449 102 12.5 206-8.77 359-102 5.12-4.06 10.1-8.32 15-12.6 1.1-0.951 1.1-0.951 2.23-1.92 1.94-1.68 3.86-3.38 5.77-5.08 0.789-0.696 1.58-1.39 2.39-2.11 5-4.45 9.79-9.01 14.4-13.8 4.98-4.62 8.38-6.5 15.1-6.39 0.808 0.0335 1.62 0.067 2.45 0.102 0.831 0.018 1.66 0.0361 2.52 0.0547 2.04 0.0468 4.07 0.119 6.11 0.195-0.66 0.99-1.32 1.98-2 3-2.5 0.307-4.81 0.467-7.31 0.5-5.23 0.123-8.39 0.458-12.7 3.5-0.722 0.309-1.44 0.619-2.19 0.938-1.95 0.92-1.95 0.92-2.71 2.9-1.23 2.42-2.64 3.96-4.55 5.88-1.03 1.03-1.03 1.03-2.07 2.08-0.715 0.707-1.43 1.41-2.17 2.14-1.04 1.05-1.04 1.05-2.11 2.13-4.16 4.14-8.36 7.62-13.2 10.9-0.763 0.763-1.53 1.53-2.31 2.31l-1.69 1.69h-2c-0.33 0.99-0.66 1.98-1 3-0.639 0.144-1.28 0.289-1.94 0.438l-2.06 0.562c-0.33 0.66-0.66 1.32-1 2-0.33 0.66-0.66 1.32-1 2-1.33 0.362-2.66 0.697-4 1-0.33 0.99-0.66 1.98-1 3-1.39 0.99-2.8 1.97-4.24 2.88-1.83 1.17-3.56 2.41-5.31 3.71-0.916 0.679-0.916 0.679-1.85 1.37-0.946 0.702-0.946 0.702-1.91 1.42-5.47 4.03-11 7.94-16.7 11.6-1.34 0.876-2.67 1.75-4.01 2.63-13.5 8.81-13.5 8.81-19.8 12.2-2.66 1.44-5.24 2.99-7.84 4.54-6.03 3.53-12.2 6.66-18.5 9.73-1.89 0.93-3.77 1.87-5.65 2.82-0.939 0.474-0.939 0.474-1.9 0.957-1.74 0.879-3.48 1.76-5.22 2.64-2.66 1.29-5.31 2.4-8.06 3.48-1.52 0.701-3.04 1.41-4.56 2.12-13.5 6.15-27.3 11.4-41.4 15.9-1.58 0.539-3.17 1.08-4.75 1.62-8.91 2.96-18.1 5.14-27.2 7.44-0.995 0.256-1.99 0.512-3.01 0.775-6.12 1.54-12.2 2.72-18.4 3.69-2.71 0.421-2.71 0.421-5.62 1.5-4.79 1.56-9.74 1.91-14.7 2.47-8.68 0.979-8.68 0.979-17.3 2.52-35.1 7.32-75.7 4.64-111 1.24-1.9-0.18-3.81-0.339-5.71-0.481-5.31-0.41-9.94-1.28-15.1-2.78-4.68-0.739-9.4-1.24-14.1-1.77-6.08-0.733-11.9-1.88-17.8-3.43-3.2-0.83-6.4-1.58-9.63-2.3-1.09-0.247-2.19-0.495-3.31-0.75-2.23-0.503-4.46-1-6.7-1.5-5.58-1.27-11-2.65-16.4-4.54-1.96-0.686-3.93-1.31-5.92-1.92-14.2-4.36-28.1-9.45-41.7-15.4-2.74-1.17-5.48-2.28-8.25-3.38-6.77-2.7-13.4-5.62-19.9-8.93-1.72-0.873-3.46-1.73-5.2-2.58-5.27-2.59-10.2-5.3-15-8.55-3.08-1.55-6.18-3.06-9.29-4.54-2.45-1.32-3.82-2.49-5.71-4.46-1.9-0.932-3.8-1.86-5.7-2.78-3.44-1.83-6.51-4.11-9.67-6.38-2.59-1.82-5.24-3.49-7.94-5.16-5.9-3.72-11.4-7.95-16.8-12.2-2.72-2.12-5.47-4.19-8.22-6.27-5.97-4.53-11.9-9.1-17.7-13.9-0.96-0.788-1.92-1.58-2.91-2.39-0.669-0.636-1.34-1.27-2.03-1.93v-2c-0.747-0.259-1.49-0.519-2.26-0.786-2.82-1.25-4.37-2.47-6.53-4.63-0.704-0.698-1.41-1.4-2.13-2.12-0.746-0.755-1.49-1.51-2.26-2.29-1.17-1.17-1.17-1.17-2.36-2.36-1.65-1.65-3.29-3.3-4.93-4.96-2.5-2.52-5.01-5.03-7.52-7.54-1.6-1.61-3.2-3.22-4.8-4.83-0.746-0.745-1.49-1.49-2.26-2.26-4.13-4.18-7.61-8.39-10.9-13.2-1.64-1.69-3.31-3.36-5-5-5.51-6.26-10.6-12.7-15.3-19.6-2.26-3.24-4.71-6.31-7.18-9.38-1.48-2.01-1.48-2.01-2.55-4.2-0.794-1.99-0.794-1.99-2.93-2.8-1.03-1.65-2.02-3.32-3-5-1.02-1.48-2.04-2.96-3.06-4.44-2.33-3.44-3.65-6.6-4.94-10.6-1.48-0.495-1.48-0.495-3-1-1.06-1.67-1.06-1.67-2-3.75-1.5-3.21-3.15-6.22-5-9.25-0.667-1.33-1.33-2.67-2-4-0.495-0.825-0.99-1.65-1.5-2.5-3.5-5.83-3.5-5.83-3.5-9.5-0.66-0.33-1.32-0.66-2-1v-4z" fill="#000002"/>
<path transform="translate(925,647)" d="m0 0c-0.0657 0.793-0.131 1.59-0.199 2.4-2.71 33.8-1.9 67.8-1.8 102h-27c-1.32-3.97-1.14-7.76-1.13-11.9-0.00175-0.909-0.0035-1.82-0.00531-2.76-0.00441-3.01-0.00148-6.02 0.00189-9.03-6.73e-4 -2.09-0.00164-4.18-0.0029-6.27-0.00148-4.39 6.73e-4 -8.77 0.00534-13.2 0.00569-5.62 0.00242-11.2-0.00357-16.9-0.00362-4.32-0.00246-8.64 1.28e-4 -13 6.67e-4 -2.07-1.51e-4 -4.14-0.00248-6.22-0.00254-2.9 0.00134-5.8 0.0069-8.7-0.00202-0.856-0.00405-1.71-0.00613-2.59 0.0142-3.99 0.143-7.66 1.14-11.6 20-2.3 20-2.3 29-2zm-29 42v30h1v-30h-1z" fill="#FCFDFF"/>
<path transform="translate(1077,199)" d="m0 0c5.94-0.0247 11.9-0.0428 17.8-0.0549 2.02-0.00504 4.05-0.0119 6.07-0.0205 2.9-0.0121 5.81-0.0178 8.71-0.0222 0.908-0.00516 1.82-0.0103 2.75-0.0156 0.841-7.55e-5 1.68-1.51e-4 2.55-2.29e-4 1.11-0.00333 1.11-0.00333 2.25-0.00673 1.83 0.12 1.83 0.12 3.83 1.12v51h-44c-1.2-2.41-1.13-3.91-1.13-6.6-0.00315-0.954-0.0063-1.91-0.00955-2.89 0.00202-1.03 0.00405-2.07 0.00613-3.13-9.57e-4 -1.06-0.00191-2.12-0.0029-3.21-6.81e-4 -2.24 0.00117-4.48 0.00534-6.72 0.00535-3.44 5.34e-5 -6.87-0.00635-10.3 6.61e-4 -2.17 0.00194-4.34 0.00391-6.52-0.00304-1.55-0.00304-1.55-0.00613-3.13 0.00315-0.954 0.0063-1.91 0.00955-2.89 7.96e-4 -0.842 0.00159-1.68 0.00241-2.55 0.127-2.05 0.127-2.05 1.13-4.05z" fill="#FBFCFE"/>
<path transform="translate(919 599)" d="m0 0c1.61 0.93 1.61 0.93 3.93 3.3 0.952 4.17 1.22 8.29 1.31 12.6 0.0374 1.09 0.0748 2.19 0.113 3.32-0.526 3.85-1.69 5.4-4.43 8.12-4.7 3.22-10.6 2.58-16 2-5.05-2.3-6.92-4.91-9-10h-1c0.353-7.79 1.76-12.8 7.5-18.4 5.56-2.48 11.7-2.82 17.6-0.867z" fill="#FBFCFE"/>
<path transform="translate(607,454)" d="m0 0c2.91 2.82 5.59 5.7 8.19 8.81 10.3 11.7 25 20.1 40.8 21.2 20.9 1.25 39.3-2.12 55.8-16 3.04-2.81 5.63-5.79 8.2-9.04 0 5.54-5.26 9.25-9 13-12.5 11.4-27.7 15.6-44.2 15.4-1.29-0.00757-2.58-0.0151-3.91-0.0229-8.9-0.155-16.6-0.72-24.8-4.41-0.95-0.424-1.9-0.848-2.88-1.29-7.05-3.52-13.5-8.24-19.1-13.7v-2c-0.603-0.248-1.21-0.495-1.83-0.75-2.53-1.46-3.44-2.76-4.92-5.25-0.428-0.701-0.856-1.4-1.3-2.12-0.953-1.88-0.953-1.88-0.953-3.88z" fill="#000002"/>
<path transform="translate(560 652)" d="m0 0c3.6 3.03 5.93 6.73 8.17 10.8-0.33 0.66-0.66 1.32-1 2-4-4.75-4-4.75-4-7-1.65-0.66-3.3-1.32-5-2v-2c-3.32-1.04-6.66-2.03-10-3-0.706-0.213-1.41-0.425-2.14-0.645-18.7-4.95-37.4 0.938-53.9 9.64 0.0977-1.78 0.0977-1.78 1-4 2.16-1.4 4.13-2.49 6.44-3.56 0.949-0.456 0.949-0.456 1.92-0.92 18-8.43 41.2-10.5 58.5 0.655z" fill="#000002"/>
<path transform="translate(1186,651)" d="m0 0c2.82 2.19 5.44 4.52 8 7-0.33 0.66-0.66 1.32-1 2-0.722-0.722-1.44-1.44-2.19-2.19-10.8-9-25.5-9.36-38.8-8.81-6.51 0.706-12.1 2.17-18 5-1.79 0.742-1.79 0.742-3.62 1.5-3.35 1.41-3.35 1.41-6.19 3.19-2.19 1.31-2.19 1.31-4.19 1.31v-3c20.1-11 44.5-18.6 66-6z" fill="#000002"/>
<path transform="translate(353,634)" d="m0 0c3.83 1.28 4.27 2.6 6.34 6.01 0.968 1.59 0.968 1.59 1.96 3.2 0.695 1.16 1.39 2.32 2.08 3.47 0.72 1.19 1.44 2.37 2.16 3.56 6.05 9.97 12 20 17.9 30.1 2.72 4.63 5.45 9.25 8.2 13.9 0.497 0.844 0.995 1.69 1.51 2.56 0.697 1.17 0.697 1.17 1.41 2.36 0.404 0.682 0.809 1.36 1.23 2.07 1.25 1.85 2.61 3.31 4.24 4.83-0.33 0.66-0.66 1.32-1 2-4.18-2.94-5.81-5.45-8-10-1.69-3.05-3.46-6.05-5.21-9.05-1.52-2.63-2.82-5.05-3.79-7.95h-2c-0.351-0.949-0.701-1.9-1.06-2.88-1.8-4.23-4.41-7.72-7.1-11.4-2.44-3.58-4.47-7.32-6.48-11.1-0.952-1.78-1.97-3.53-3.03-5.24-1.33-2.3-1.33-2.3-1.33-4.3-0.66-0.33-1.32-0.66-2-1-3-4.5-3-4.5-3-7h-2c-0.33-1.32-0.66-2.64-1-4z" fill="#000002"/>
<path transform="translate(542,690)" d="m0 0v3c-1.29 0.205-2.58 0.41-3.9 0.621-1.68 0.272-3.36 0.544-5.04 0.816-0.85 0.135-1.7 0.269-2.58 0.408-0.809 0.132-1.62 0.264-2.45 0.4-0.749 0.12-1.5 0.241-2.27 0.365-1.78 0.227-1.78 0.227-2.77 1.39-3.67 0.628-7.35 1.19-11 1.72-5.12 0.79-9.27 2.1-14 4.28-1.09 0.289-2.19 0.577-3.31 0.875-2.92 0.886-2.92 0.886-4.06 3.75-0.206 0.784-0.413 1.57-0.625 2.38h-2c3.02-6.8 7.14-10.3 14-13 3.92-1.08 7.88-1.87 11.9-2.62 1.02-0.204 2.05-0.407 3.11-0.617 2.03-0.402 4.06-0.798 6.09-1.19 3.61-0.701 7.22-1.45 10.8-2.2 2.73-0.472 5.36-0.511 8.12-0.366z" fill="#000002"/>
<path transform="translate(1170,690)" d="m0 0c-0.33 0.99-0.66 1.98-1 3-1.13 0.193-2.27 0.387-3.44 0.586-1.52 0.263-3.04 0.526-4.56 0.789-0.744 0.126-1.49 0.253-2.25 0.383-4.32 0.752-8.56 1.67-12.8 2.77-4.4 1.07-8.9 1.73-13.4 2.5-3.86 1.05-6.36 2.67-9.59 4.98h-2c-0.433 0.959-0.433 0.959-0.875 1.94-1.12 2.06-1.12 2.06-3.12 3.06 1.37-5.16 4.61-8.2 9-11 6.89-3.13 14.2-4.4 21.6-5.79 2.12-0.399 4.24-0.811 6.36-1.22 11.3-2.16 11.3-2.16 16.1-1.99z" fill="#000002"/>
<path transform="translate(1009,752)" d="m0 0c0.495 1.49 0.495 1.49 1 3-9.27 9.53-20.6 17.3-33.9 19.7-1.03 0.194-1.03 0.194-2.09 0.393-1.68 0.315-3.36 0.618-5.04 0.92 0.0195-1.86 0.0195-1.86 1-4 2.6-0.941 5.01-1.63 7.69-2.25 12.1-3.19 22.4-8.84 31.3-17.8z" fill="#000002"/>
<path transform="translate(1248,479)" d="m0 0c0.603 0.422 1.21 0.843 1.83 1.28 1.2 0.822 1.2 0.822 2.42 1.66 0.789 0.545 1.58 1.09 2.39 1.65 10.5 6.25 27.2 2.13 38.4-0.59-0.33 1.32-0.66 2.64-1 4-7.58 1.59-14.9 2.42-22.6 2.5-1.46 0.0619-1.46 0.0619-2.95 0.125-7.28 0.0783-12-1.73-17.4-6.62-0.66-0.99-1.32-1.98-2-3 0.33-0.33 0.66-0.66 1-1z" fill="#000002"/>
<path transform="translate(661,719)" d="m0 0c0.835 1.14 0.835 1.14 1.69 2.31 2.91 3.38 5 5.31 9.5 6.04 6.16 0.356 10.3-1.16 15.7-4.16 2.13-1.19 2.13-1.19 5.13-2.19-0.125 1.75-0.125 1.75-1 4-7.33 5.67-13.9 6.99-23 6-4.12-1.88-5.56-3.29-7.94-7.12-0.351-0.949-0.701-1.9-1.06-2.88 0.33-0.66 0.66-1.32 1-2z" fill="#000002"/>
<path transform="translate(1016,414)" d="m0 0h1v102h-1v-102z" fill="#000002"/>
<path transform="translate(540,722)" d="m0 0c0.33 0.99 0.66 1.98 1 3-5.81 5.98-9.46 9.03-17.9 9.38-3.6-0.0373-5.86-0.364-8.75-2.56-2.38-2.81-2.38-2.81-2.75-5.62 0.124-0.722 0.248-1.44 0.375-2.19 0.763 0.804 1.53 1.61 2.31 2.44 3.05 2.9 4.63 3.43 8.75 3.94 6.46-0.615 12.5-3.52 16.9-8.38z" fill="#000002"/>
<path transform="translate(1078,367)" d="m0 0h1v97h-1v-97z" fill="#FCFDFF"/>
<path transform="translate(1168,723)" d="m0 0c0.33 0.99 0.66 1.98 1 3-1.24 1.15-2.49 2.3-3.75 3.44-1.04 0.957-1.04 0.957-2.11 1.93-4.84 3.69-11.3 3.25-17.1 2.63-3.19-1.69-3.19-1.69-5-4-0.312-2.75-0.312-2.75 0-5 0.897 0.959 0.897 0.959 1.81 1.94 3.35 3.16 6.48 3.4 11 3.35 5.33-0.703 10.1-3.9 14.2-7.29z" fill="#000002"/>
<path transform="translate(1e3 646)" d="m0 0c0.33 2.64 0.66 5.28 1 8-0.33-1.32-0.66-2.64-1-4-8.91 0.66-17.8 1.32-27 2v-4c4.88-0.922 9.68-1.3 14.6-1.56 1.13-0.0648 1.13-0.0648 2.27-0.131 3.37-0.188 6.72-0.307 10.1-0.307z" fill="#000002"/>
<path transform="translate(816,723)" d="m0 0c0.763 0.639 1.53 1.28 2.31 1.94 4.07 3.12 7.71 3.61 12.7 3.06 2.91-0.727 5.78-1.55 8.64-2.44 2.36-0.559 2.36-0.559 4.36 0.441-0.33 1.32-0.66 2.64-1 4-2.67 0.394-5.33 0.765-8 1.12-0.744 0.112-1.49 0.224-2.25 0.34-5.45 0.711-9.52 0.309-14.7-1.46-2.06-2.5-2.06-2.5-3-5 0.33-0.66 0.66-1.32 1-2z" fill="#000002"/>
<path transform="translate(925,647)" d="m0 0c-0.33 1.32-0.66 2.64-1 4-0.953 0.0376-0.953 0.0376-1.92 0.0759-2.9 0.117-5.8 0.239-8.7 0.362-0.999 0.0393-2 0.0786-3.03 0.119-4.86 0.209-9.57 0.473-14.3 1.44v-4c20-2.3 20-2.3 29-2z" fill="#000002"/>
<path transform="translate(722,647)" d="m0 0c-0.33 1.32-0.66 2.64-1 4-0.907 0.0376-0.907 0.0376-1.83 0.0759-2.76 0.117-5.53 0.239-8.29 0.362-0.951 0.0393-1.9 0.0786-2.88 0.119-4.74 0.214-9.33 0.509-14 1.44v-4c18.8-2.3 18.8-2.3 28-2z" fill="#000002"/>
<path transform="translate(662,647)" d="m0 0c-0.66 1.32-1.32 2.64-2 4-0.574 0.0251-1.15 0.0501-1.74 0.0759-2.63 0.117-5.26 0.239-7.88 0.362-0.904 0.0393-1.81 0.0786-2.74 0.119-4.62 0.219-9.09 0.544-13.6 1.44v-4c18.8-2.3 18.8-2.3 28-2z" fill="#000002"/>
<path transform="translate(816,647)" d="m0 0c13.9 0.495 13.9 0.495 28 1-0.33 1.32-0.66 2.64-1 4-12.9-0.495-12.9-0.495-26-1-0.33-1.32-0.66-2.64-1-4z" fill="#000002"/>
<path transform="translate(1047,647)" d="m0 0h25c-0.66 1.32-1.32 2.64-2 4-0.984-0.00786-0.984-0.00786-1.99-0.0159-2.96-0.0207-5.92-0.0338-8.89-0.0466-1.03-0.00838-2.07-0.0168-3.13-0.0254-0.986-0.00322-1.97-0.00645-2.99-0.00977-0.911-0.00524-1.82-0.0105-2.76-0.0159-2.28-0.0353-2.28-0.0353-4.25 1.11 0.33-1.65 0.66-3.3 1-5z" fill="#000002"/>
<path transform="translate(308,608)" d="m0 0h31c0.66 1.32 1.32 2.64 2 4-0.99-0.33-1.98-0.66-3-1-2.36-0.084-4.72-0.107-7.07-0.0977-0.684 0.00141-1.37 0.00283-2.07 0.00429-2.18 0.00559-4.36 0.0181-6.54 0.0309-1.48 0.00502-2.96 0.00958-4.44 0.0137-3.62 0.011-7.25 0.0283-10.9 0.0488 0.33-0.99 0.66-1.98 1-3z" fill="#000002"/>
<path transform="translate(818,625)" d="m0 0v2c-0.641 0.0374-1.28 0.0748-1.94 0.113-5.68 0.431-9.83 1.54-15.1 3.89-3.98 1.11-7.98 2.07-12 3 0.33-0.99 0.66-1.98 1-3 3.96-1.86 8.2-3.01 12.4-4.31 1.16-0.385 2.33-0.77 3.52-1.17 1.11-0.354 2.23-0.708 3.38-1.07 1.03-0.327 2.05-0.653 3.11-0.99 2.62-0.46 2.62-0.46 5.62 1.54z" fill="#000002"/>
<path transform="translate(1293,595)" d="m0 0c-0.33 1.32-0.66 2.64-1 4-0.706 0.0251-1.41 0.0501-2.14 0.0759-3.2 0.116-6.41 0.239-9.61 0.362-1.11 0.0393-2.22 0.0786-3.37 0.119-1.07 0.0419-2.14 0.0838-3.24 0.127-0.985 0.0367-1.97 0.0733-2.98 0.111-2.35 0.181-4.4 0.549-6.66 1.21v-3c23.2-3 23.2-3 29-3z" fill="#000002"/>
<path transform="translate(919 599)" d="m0 0c2.43 1.5 3.76 2.83 4.79 5.49 0.0412 0.577 0.0825 1.15 0.125 1.75-0.763-0.639-1.53-1.28-2.31-1.94-4.68-3.59-9.02-3.45-14.7-3.06-4.91 1.14-4.91 1.14-8 5-0.66-0.33-1.32-0.66-2-1 5.45-7.4 13.2-9.49 22.1-6.24z" fill="#000002"/>
<path transform="translate(426,608)" d="m0 0c-0.33 0.99-0.66 1.98-1 3-1.02 0.0376-1.02 0.0376-2.06 0.0759-3.08 0.116-6.17 0.239-9.25 0.362-1.07 0.0393-2.14 0.0786-3.25 0.119-1.54 0.0628-1.54 0.0628-3.12 0.127-1.42 0.055-1.42 0.055-2.87 0.111-2.59 0.12-2.59 0.12-5.45 1.21v-3c8.23-2.74 18.4-2.15 27-2z" fill="#000002"/>
<path transform="translate(1195,728)" d="m0 0 2 1c1.87 0.228 3.75 0.41 5.62 0.562 1 0.0838 2.01 0.168 3.04 0.254 0.771 0.0606 1.54 0.121 2.34 0.184v4c-3.96-0.33-7.92-0.66-12-1-0.33-1.65-0.66-3.3-1-5z" fill="#000002"/>
<path transform="translate(720,727)" d="m0 0 2 2c2.43 0.462 2.43 0.462 5.12 0.625 0.91 0.0748 1.82 0.15 2.76 0.227 0.699 0.049 1.4 0.098 2.12 0.148 0.33 1.65 0.66 3.3 1 5-0.66-0.33-1.32-0.66-2-1-1.5-0.201-3-0.363-4.5-0.5-4.28-0.389-4.28-0.389-6.5-1.5-0.688-2-0.688-2-1-4l1-1z" fill="#000002"/>
<path transform="translate(567,727)" d="m0 0 2 2c2.43 0.462 2.43 0.462 5.12 0.625 0.91 0.0748 1.82 0.15 2.76 0.227 0.699 0.049 1.4 0.098 2.12 0.148 0.33 1.32 0.66 2.64 1 4-1.77-0.114-3.54-0.242-5.31-0.375-0.986-0.0696-1.97-0.139-2.99-0.211-2.7-0.414-2.7-0.414-5.7-2.41 0.33-1.32 0.66-2.64 1-4z" fill="#000002"/>
<path transform="translate(776,648)" d="m0 0h12v3c-5.94 0.495-5.94 0.495-12 1v-4z" fill="#000002"/>
<path transform="translate(1292,629)" d="m0 0h1v17h-1v-17z" fill="#000002"/>
<path transform="translate(1292,735)" d="m0 0h1v10h-1v-10z" fill="#000002"/>
<path transform="translate(527,510)" d="m0 0c3 3.75 3 3.75 3 6h-2c-0.33-1.98-0.66-3.96-1-6z" fill="#000002"/>
<path transform="translate(1016,358)" d="m0 0h1v8h-1v-8z" fill="#000002"/>
<path transform="translate(443,1)" d="m0 0h8v1h-8v-1z" fill="#FCFDFF"/>
<path transform="translate(923,723)" d="m0 0h1v7h-1v-7z" fill="#000002"/>
<path transform="translate(16,526)" d="m0 0h1v7h-1v-7z" fill="#000002"/>
<path transform="translate(1169,674)" d="m0 0h1v6h-1v-6z" fill="#FCFDFF"/>
<path transform="translate(333,745)" d="m0 0h1v5h-1v-5z" fill="#000002"/>
<path transform="translate(17,541)" d="m0 0h1v5h-1v-5z" fill="#000002"/>
<path transform="translate(31,619)" d="m0 0 1 4z" fill="#000002"/>
<path transform="translate(27,603)" d="m0 0 1 4z" fill="#000002"/>
<path transform="translate(26,599)" d="m0 0 1 4z" fill="#000002"/>
<path transform="translate(22,579)" d="m0 0 1 4z" fill="#000002"/>
<path transform="translate(20,565)" d="m0 0 1 4z" fill="#000002"/>
<path transform="translate(771,371)" d="m0 0 1 4z" fill="#000002"/>
<path transform="translate(866,159)" d="m0 0c0.66 0.66 1.32 1.32 2 2h-2v-2z" fill="#000002"/>
<path transform="translate(452)" d="m0 0 2 1z" fill="#FCFDFF"/>
</svg>
